<svg width="137" height="28" viewBox="0 0 137 28" fill="none" xmlns="http://www.w3.org/2000/svg">
<path d="M114.678 28H108.087L122.959 0H130.885L136.084 28H129.493L125.956 6.39844H125.729L114.678 28ZM116.183 16.9941H131.751L130.928 21.6152H115.359L116.183 16.9941Z" fill="#0B57D0"/>
<path d="M121.087 0L106.087 28H99.9361L114.936 0H121.087Z" fill="#0B57D0"/>
<path d="M95.9191 0L94.6321 21.2734H94.902L105.598 0H112.416L97.5583 28H89.6321L89.0867 0H95.9191Z" fill="#0B57D0"/>
<path d="M63.0867 28L67.9162 0H79.3935C81.5905 0 83.3992 0.373697 84.8196 1.12109C86.2495 1.86849 87.2533 2.93034 87.831 4.30664C88.4181 5.67383 88.5554 7.28711 88.2429 9.14649C87.9209 11.0059 87.2249 12.6009 86.1549 13.9316C85.0942 15.2624 83.7117 16.2878 82.0071 17.0078C80.312 17.7188 78.3471 18.0742 76.1122 18.0742H68.4276L69.2799 13.3164H75.956C77.1302 13.3164 78.134 13.1615 78.9674 12.8516C79.8007 12.5417 80.4588 12.0768 80.9418 11.457C81.4342 10.8372 81.7562 10.0671 81.9077 9.14649C82.0687 8.20768 82.0119 7.42383 81.7372 6.79492C81.4626 6.1569 80.9655 5.67383 80.2458 5.3457C79.5261 5.00846 78.5791 4.83984 77.4049 4.83984H73.2571L69.2372 28H63.0867ZM80.9844 15.2578L86.027 28H79.2372L74.3509 15.2578H80.9844Z" fill="#0B57D0"/>
<path d="M44.0867 28L48.4355 0H66.0867L65.3192 4.88086H53.2064L52.1832 11.5527H63.3878L62.6204 16.4336H51.4157L50.3925 23.1191H62.5564L61.789 28H44.0867Z" fill="#0B57D0"/>
<path d="M28.0867 4.88086L28.7755 0H47.0867L46.3978 4.88086H42.5103L39.2956 28H33.5867L36.8014 4.88086H28.0867Z" fill="#0B57D0"/>
<path d="M33.0867 5.5L29.9464 28H25.3921L17.1724 10.377H16.9776L14.3594 28H9.08667L13.227 0H17.8543L26.0375 17.6094H26.2445L27.8383 5.5H33.0867Z" fill="#0B57D0"/>
<path d="M11.8963 0L7.06677 28H0.916199L5.74574 0H11.8963Z" fill="#0B57D0"/>
</svg>
